<svg width="15" height="13" viewBox="0 0 15 13" fill="none" xmlns="http://www.w3.org/2000/svg">
<path fill-rule="evenodd" clip-rule="evenodd" d="M8.96909 1.06828C8.70764 0.809029 8.28553 0.81081 8.02628 1.07226C7.76704 1.3337 7.76882 1.75581 8.03026 2.01506L11.8796 5.83203H1.49967C1.13148 5.83203 0.833008 6.13051 0.833008 6.4987C0.833008 6.86689 1.13148 7.16536 1.49967 7.16536H11.8815L8.03026 10.9842C7.76882 11.2435 7.76704 11.6656 8.02628 11.927C8.28553 12.1885 8.70764 12.1903 8.96909 11.931L13.9691 6.97304C14.0949 6.84825 14.1659 6.67851 14.1663 6.50133C14.1663 6.50045 14.1663 6.49958 14.1663 6.4987M8.96909 1.06828L13.9472 6.00459L8.96909 1.06828Z" fill="#3F73F9"/>
</svg>
