<svg width="20" height="23" viewBox="0 0 20 23" fill="none" xmlns="http://www.w3.org/2000/svg">
<path d="M1 5.5H19" stroke="#F93766" stroke-width="1.33333" stroke-linecap="round" stroke-linejoin="round"/>
<path d="M6 5.5V3.5C6 2.96957 6.21071 2.46086 6.58579 2.08579C6.96086 1.71071 7.46957 1.5 8 1.5H12C12.5304 1.5 13.0391 1.71071 13.4142 2.08579C13.7893 2.46086 14 2.96957 14 3.5V5.5M17 5.5V19.5C17 20.0304 16.7893 20.5391 16.4142 20.9142C16.0391 21.2893 15.5304 21.5 15 21.5H5C4.46957 21.5 3.96086 21.2893 3.58579 20.9142C3.21071 20.5391 3 20.0304 3 19.5V5.5H17Z" stroke="#F93766" stroke-width="1.33333" stroke-linecap="round" stroke-linejoin="round"/>
<path d="M8 10.5V16.5" stroke="#F93766" stroke-width="1.33333" stroke-linecap="round" stroke-linejoin="round"/>
<path d="M12 10.5V16.5" stroke="#F93766" stroke-width="1.33333" stroke-linecap="round" stroke-linejoin="round"/>
</svg>
